<svg width="385" height="522" viewBox="0 0 385 522" fill="none" xmlns="http://www.w3.org/2000/svg">
<g clip-path="url(#clip0_2106_897)">
<path d="M155.73 463.94L157.73 521.54C157.737 521.613 157.773 521.653 157.84 521.66L158.09 521.69C158.323 521.717 158.443 521.613 158.45 521.38L160.13 463.52" stroke="#F5908E" stroke-width="2"/>
<path d="M276.05 411.33C283.85 406.277 291.766 400.433 299.8 393.8C301.08 392.74 301.89 391.583 302.23 390.33" stroke="#878A8B" stroke-width="2"/>
<path d="M213.13 29.48L198.65 2.58997" stroke="#C98C8F" stroke-width="2"/>
<path d="M198.65 2.59C198.297 1.51 197.823 0.786687 197.23 0.420021C196.923 0.226687 196.683 0.289993 196.51 0.609993L181.86 27.32" stroke="#F5908E" stroke-width="2"/>
<path d="M198.65 2.58997C197.497 2.85663 196.993 3.79664 197.14 5.40997C197.3 7.27664 197.38 8.22665 197.38 8.25998C197.347 40.92 197.333 73.5833 197.34 106.25C197.34 107.677 197.287 109.15 197.18 110.67C197.16 110.99 196.993 111.193 196.68 111.28L191.33 112.76" stroke="#CC2B31" stroke-width="2"/>
<path d="M191.33 112.76C177.32 115.18 165.73 124.34 159.97 137.23C156.74 144.44 156.19 153.21 156.34 161.24C156.607 175.413 157.003 188.823 157.53 201.47C158 212.81 158.03 224.2 158.66 235.64C159.42 249.37 158.79 260.45 153.73 273.16C145.38 294.17 130.98 311.44 114.56 326.81C112.787 328.47 108.36 332.377 101.28 338.53C101.007 338.763 100.873 339.17 100.88 339.75" stroke="#8A282D" stroke-width="2"/>
<path d="M100.88 339.75C100.707 339.517 100.53 339.47 100.35 339.61C94.7433 344.063 89.0666 348.53 83.3199 353.01C83.244 353.068 83.1533 353.104 83.0582 353.113C82.9631 353.122 82.8673 353.104 82.7818 353.061C82.6963 353.019 82.6246 352.953 82.5747 352.871C82.5249 352.79 82.499 352.696 82.4999 352.6C82.4932 322.2 82.4966 291.75 82.5099 261.25C82.5099 257.43 83.0132 253.867 84.0199 250.56" stroke="#F99494" stroke-width="2"/>
<path d="M84.02 250.56C85.9134 248.767 87.23 246.58 87.97 244C88.3967 242.507 88.84 241.34 89.3 240.5C89.9267 239.36 90.52 238.243 91.08 237.15C92.0467 235.257 93.0734 233.673 94.16 232.4C95.3467 231 96.48 229.497 97.56 227.89C97.6134 227.81 97.64 227.72 97.64 227.62C97.64 227.533 97.6367 227.447 97.63 227.36C97.6234 227.033 97.7267 226.743 97.94 226.49C98.8334 225.437 99.7867 224.52 100.8 223.74C101.447 223.24 101.95 222.627 102.31 221.9C102.457 221.607 102.657 221.357 102.91 221.15C105.237 219.29 107.393 217.213 109.38 214.92C109.613 214.653 109.787 214.353 109.9 214.02C110.053 213.56 110.367 213.253 110.84 213.1C110.93 213.071 111.011 213.017 111.071 212.944C111.131 212.871 111.169 212.782 111.179 212.688C111.19 212.593 111.173 212.498 111.13 212.413C111.088 212.329 111.022 212.258 110.94 212.21C110.753 212.103 110.543 212.083 110.31 212.15" stroke="#CC2B31" stroke-width="2"/>
<path d="M110.31 212.15C113.636 209.383 117.006 206.62 120.42 203.86C134.42 192.54 141.45 178.03 142.6 160.45C143.346 149.137 144.78 138.307 146.9 127.96C154 93.3267 165.653 59.7801 181.86 27.3201" stroke="#F99494" stroke-width="2"/>
<path d="M213.13 29.48C223.137 50.4133 231.23 71.1233 237.41 91.61C241.877 106.41 245.56 122.537 248.46 139.99C249.02 143.363 249.683 150.167 250.45 160.4C250.917 166.607 251.797 171.78 253.09 175.92C255.93 185.013 260.44 192.693 266.62 198.96C271.78 204.19 278.15 208.67 283.89 213.59C297.47 225.25 308.14 240.7 309.4 258.86C309.54 260.953 309.617 265.12 309.63 271.36" stroke="#CD9095" stroke-width="2"/>
<path d="M309.63 271.36C308.363 271.48 307.857 270.03 308.11 267.01C308.39 263.63 308.44 258.79 306.39 256.27C301.583 250.33 296.24 244.07 290.36 237.49C277.19 222.73 264.48 207.62 251.34 192.85C247.44 188.46 243.04 182.82 240.58 178.03C238.907 174.763 238.073 171.17 238.08 167.25C238.087 165.89 237.633 165.543 236.72 166.21" stroke="#CC2B31" stroke-width="2"/>
<path d="M236.72 166.21C236.693 162.557 236.673 158.903 236.66 155.25C236.56 133.8 223.62 116.15 201.97 112.57C199.91 112.23 196.363 112.293 191.33 112.76" stroke="#5E252E" stroke-width="2"/>
<path d="M110.31 212.15C102.997 218.023 96.66 225.057 91.3 233.25C87.8467 238.53 85.42 244.3 84.02 250.56" stroke="#CD9095" stroke-width="2"/>
<path d="M100.88 339.75C109.46 353.497 120.513 365.48 134.04 375.7C134.627 376.147 134.92 376 134.92 375.26C134.927 365.587 134.9 355.917 134.84 346.25C134.8 338.48 135.66 332.5 139.76 327.03C142.827 322.943 145.667 318.81 148.28 314.63C148.48 314.31 148.727 314.263 149.02 314.49C154.9 318.923 160.58 323.237 166.06 327.43C167.133 328.257 167.727 329.333 167.84 330.66C170.253 357.813 172.527 385.43 174.66 413.51C174.713 414.203 175.087 414.543 175.78 414.53L184.52 414.35C184.853 414.343 185.007 414.177 184.98 413.85L178.27 309.11C178.23 308.57 178.483 308.3 179.03 308.3L201.09 308.31" stroke="#8B8E91" stroke-width="2"/>
<path d="M201.09 308.31C199.783 342.557 198.6 376.773 197.54 410.96C197.16 423.26 197.2 435.82 197.14 448.12C197.127 449.947 197.393 449.99 197.94 448.25C201.213 437.817 204.233 426.903 207 415.51C206.807 414.89 206.983 414.543 207.53 414.47" stroke="#DDD7D0" stroke-width="2"/>
<path d="M207.53 414.47L217.71 414.41C217.82 414.408 217.925 414.366 218.005 414.292C218.084 414.218 218.132 414.117 218.14 414.01C220.22 385.843 222.573 357.617 225.2 329.33C225.228 329.016 225.323 328.712 225.478 328.438C225.633 328.163 225.845 327.926 226.1 327.74L243.96 314.76C244.24 314.553 244.48 314.59 244.68 314.87C247.927 319.383 250.91 323.507 253.63 327.24C256.843 331.66 258.507 336.227 258.62 340.94C258.873 351.24 258.88 362.477 258.64 374.65C258.633 375.077 258.8 375.16 259.14 374.9C270.233 366.327 279.603 356.74 287.25 346.14C288.65 344.2 289.96 342.133 291.18 339.94C291.247 339.827 291.46 339.723 291.82 339.63" stroke="#8B8E91" stroke-width="2"/>
<path d="M291.82 339.63L308.77 353.04C308.856 353.108 308.959 353.15 309.068 353.162C309.177 353.174 309.286 353.154 309.385 353.106C309.483 353.058 309.566 352.983 309.623 352.89C309.681 352.797 309.711 352.689 309.71 352.58L309.63 271.36" stroke="#F99494" stroke-width="2"/>
<path d="M302.23 390.33C301.85 385.04 297.13 384.17 293.56 387.35C283.82 396.05 273.123 403.59 261.47 409.97C256.44 412.72 259.09 420.26 264.05 418.08C268.29 416.213 272.29 413.963 276.05 411.33" stroke="#8B8E91" stroke-width="2"/>
<path d="M237.41 436.73C237.95 418.723 238.49 398.663 239.03 376.55C239.09 373.897 237.707 372.363 234.88 371.95C234.753 371.93 234.627 371.927 234.5 371.94C231.667 372.187 230.27 373.63 230.31 376.27C230.703 404.543 231.263 432.183 231.99 459.19" stroke="#F99494" stroke-width="2"/>
<path d="M234 522L231.5 459.5L238 436.5L234 522Z" stroke="#F99494"/>
<path d="M160.13 463.52C160.817 439.467 161.32 415.397 161.64 391.31C161.71 386.14 161.92 380.93 161.55 375.86C161.16 370.44 153 371.09 153.15 376.83C153.897 405.797 154.757 434.833 155.73 463.94" stroke="#F99494" stroke-width="2"/>
<path d="M125.13 454.52C126.343 453.507 127.033 452.493 127.2 451.48C127.533 449.447 126.673 447.947 124.62 446.98C111.467 440.773 99.1767 433.223 87.75 424.33" stroke="#8B8E91" stroke-width="2"/>
<path d="M236.72 166.21C236.607 167.123 236.54 168.053 236.52 169C236.08 187.74 235.603 205.7 235.09 222.88C234.777 233.24 234.717 242.783 234.91 251.51C235.003 255.91 235.727 260.63 237.08 265.67C240.013 276.61 244.467 286.573 250.44 295.56C261.17 311.73 275.4 325.93 291.29 338.96C291.403 339.06 291.537 339.117 291.69 339.13C291.803 339.143 291.853 339.207 291.84 339.32L291.82 339.63" stroke="#8A282D" stroke-width="2"/>
<path d="M207.53 414.47C207.303 414.27 207.2 414.03 207.22 413.75C209.773 379.93 212.183 345.107 214.45 309.28C214.496 308.533 214.143 308.163 213.39 308.17L201.09 308.31" stroke="#6E6C69" stroke-width="2"/>
<path d="M272.9 47.09C276.06 48.17 277.97 50.0667 278.63 52.78C279.197 55.0867 279.88 55.12 280.68 52.88C281.72 49.9667 283.603 47.86 286.33 46.56C287.697 45.9067 287.637 45.4367 286.15 45.15C282.983 44.55 280.96 42.3834 280.08 38.65C280.007 38.3434 279.817 38.1934 279.51 38.2C279.29 38.2067 279.153 38.3134 279.1 38.52C278.04 42.52 275.743 44.8934 272.21 45.64C272.115 45.6611 272.027 45.7076 271.956 45.7744C271.886 45.8413 271.834 45.9259 271.809 46.0189C271.783 46.1119 271.783 46.2098 271.81 46.3018C271.837 46.3937 271.889 46.4761 271.96 46.54C272.233 46.7867 272.547 46.97 272.9 47.09Z" stroke="#F5908E" stroke-width="2"/>
<path d="M97.6077 42.8819C97.803 43.0007 98.022 43.076 98.2522 43.1037C98.4825 43.1313 98.7195 43.1108 98.9497 43.0432C99.1799 42.9756 99.3988 42.8623 99.5939 42.7097C99.789 42.5571 99.9565 42.3683 100.087 42.1539C100.217 41.9396 100.308 41.704 100.353 41.4606C100.399 41.2171 100.399 40.9706 100.353 40.7351C100.307 40.4996 100.216 40.2798 100.086 40.0881C99.9552 39.8964 99.7875 39.7367 99.5923 39.618C99.3971 39.4992 99.1781 39.4239 98.9478 39.3962C98.7176 39.3685 98.4806 39.3891 98.2504 39.4567C98.0201 39.5243 97.8012 39.6376 97.6061 39.7902C97.411 39.9428 97.2435 40.1316 97.1132 40.3459C96.9829 40.5603 96.8923 40.7959 96.8467 41.0393C96.801 41.2827 96.8011 41.5293 96.847 41.7647C96.8929 42.0002 96.9838 42.2201 97.1143 42.4118C97.2448 42.6035 97.4125 42.7632 97.6077 42.8819Z" stroke="#F5908E" stroke-width="2"/>
<path d="M362.69 70.14C362.69 69.119 362.284 68.1397 361.562 67.4177C360.84 66.6956 359.861 66.29 358.84 66.29C357.819 66.29 356.84 66.6956 356.118 67.4177C355.396 68.1397 354.99 69.119 354.99 70.14C354.99 71.1611 355.396 72.1404 356.118 72.8624C356.84 73.5844 357.819 73.99 358.84 73.99C359.861 73.99 360.84 73.5844 361.562 72.8624C362.284 72.1404 362.69 71.1611 362.69 70.14Z" stroke="#F5908E" stroke-width="2"/>
<path d="M337.222 96.9997C337.064 94.3443 335.831 91.8619 333.793 90.0987C331.755 88.3355 329.079 87.4359 326.355 87.5977C325.006 87.6778 323.686 88.0162 322.47 88.5934C321.253 89.1706 320.165 89.9754 319.266 90.9618C318.367 91.9482 317.676 93.0969 317.232 94.3423C316.788 95.5877 316.6 96.9055 316.678 98.2203C316.836 100.876 318.069 103.358 320.107 105.121C322.145 106.885 324.821 107.784 327.545 107.622C328.894 107.542 330.214 107.204 331.43 106.627C332.647 106.049 333.735 105.245 334.634 104.258C335.533 103.272 336.224 102.123 336.668 100.878C337.112 99.6323 337.3 98.3145 337.222 96.9997Z" stroke="#F5908E" stroke-width="2"/>
<path d="M60.5798 97.0601C60.5798 95.665 60.0256 94.3271 59.0392 93.3407C58.0527 92.3542 56.7149 91.8 55.3198 91.8C53.9248 91.8 52.5869 92.3542 51.6004 93.3407C50.614 94.3271 50.0598 95.665 50.0598 97.0601C50.0598 98.4551 50.614 99.793 51.6004 100.779C52.5869 101.766 53.9248 102.32 55.3198 102.32C56.7149 102.32 58.0527 101.766 59.0392 100.779C60.0256 99.793 60.5798 98.4551 60.5798 97.0601Z" stroke="#F5908E" stroke-width="2"/>
<path d="M13.9498 180.09C13.9498 178.944 13.4947 177.845 12.6845 177.035C11.8744 176.225 10.7756 175.77 9.62982 175.77C8.48409 175.77 7.38526 176.225 6.5751 177.035C5.76495 177.845 5.30981 178.944 5.30981 180.09C5.30981 181.236 5.76495 182.335 6.5751 183.145C7.38526 183.955 8.48409 184.41 9.62982 184.41C10.7756 184.41 11.8744 183.955 12.6845 183.145C13.4947 182.335 13.9498 181.236 13.9498 180.09Z" stroke="#878A8B" stroke-width="2"/>
<path d="M23.8746 276.521C23.5301 275.129 22.91 273.82 22.0498 272.668C21.1895 271.516 20.106 270.544 18.8609 269.807C17.6159 269.071 16.2337 268.584 14.7934 268.375C13.3531 268.166 11.8829 268.239 10.4666 268.59C7.60635 269.298 5.1396 271.093 3.60904 273.582C2.07848 276.07 1.60949 279.048 2.30521 281.859C2.6497 283.251 3.26978 284.56 4.13004 285.712C4.99029 286.864 6.07389 287.836 7.31894 288.573C8.56399 289.309 9.94609 289.796 11.3864 290.005C12.8267 290.214 14.2969 290.141 15.7132 289.79C18.5735 289.082 21.0402 287.287 22.5708 284.798C24.1013 282.31 24.5703 279.332 23.8746 276.521Z" stroke="#878A8B" stroke-width="2"/>
<path d="M385.36 279.6C385.36 278.202 384.805 276.862 383.816 275.874C382.828 274.885 381.488 274.33 380.09 274.33C378.692 274.33 377.352 274.885 376.363 275.874C375.375 276.862 374.82 278.202 374.82 279.6C374.82 280.998 375.375 282.338 376.363 283.327C377.352 284.315 378.692 284.87 380.09 284.87C381.488 284.87 382.828 284.315 383.816 283.327C384.805 282.338 385.36 280.998 385.36 279.6Z" stroke="#878A8B" stroke-width="2"/>
<path d="M339.71 363.04C339.63 363.113 339.565 363.202 339.522 363.302C339.478 363.401 339.456 363.509 339.457 363.617C339.458 363.726 339.482 363.833 339.527 363.932C339.573 364.03 339.638 364.118 339.72 364.19L356.95 379.15C357.092 379.273 357.274 379.34 357.462 379.338C357.65 379.336 357.83 379.266 357.97 379.14L375.43 363.71C375.512 363.637 375.578 363.547 375.622 363.447C375.667 363.346 375.689 363.238 375.689 363.128C375.688 363.018 375.663 362.909 375.617 362.81C375.57 362.71 375.503 362.622 375.42 362.55L358.19 347.4C358.048 347.277 357.866 347.21 357.678 347.212C357.49 347.214 357.309 347.284 357.17 347.41L339.71 363.04Z" stroke="#F5908E" stroke-width="2"/>
<path d="M44.53 367.18C44.53 366.018 44.0686 364.904 43.2472 364.083C42.4258 363.262 41.3117 362.8 40.15 362.8C38.9884 362.8 37.8743 363.262 37.0529 364.083C36.2315 364.904 35.77 366.018 35.77 367.18C35.77 368.342 36.2315 369.456 37.0529 370.277C37.8743 371.099 38.9884 371.56 40.15 371.56C41.3117 371.56 42.4258 371.099 43.2472 370.277C44.0686 369.456 44.53 368.342 44.53 367.18Z" stroke="#878A8B" stroke-width="2"/>
<path d="M54.7064 391.812C54.3385 391.389 53.8909 391.043 53.389 390.792C52.8872 390.542 52.341 390.393 51.7816 390.354C51.2222 390.315 50.6606 390.386 50.1288 390.564C49.5971 390.742 49.1056 391.023 48.6824 391.391L48.4711 391.575C48.0479 391.943 47.7013 392.39 47.4511 392.892C47.2009 393.394 47.052 393.94 47.0128 394.5C46.9737 395.059 47.0452 395.621 47.2231 396.152C47.4011 396.684 47.682 397.176 48.0499 397.599L63.9134 415.848C64.2813 416.271 64.7289 416.618 65.2307 416.868C65.7326 417.118 66.2787 417.267 66.8381 417.306C67.3975 417.345 67.9591 417.274 68.4909 417.096C69.0227 416.918 69.5142 416.637 69.9374 416.269L70.1487 416.085C70.5719 415.717 70.9185 415.27 71.1687 414.768C71.4189 414.266 71.5678 413.72 71.6069 413.161C71.646 412.601 71.5746 412.04 71.3966 411.508C71.2187 410.976 70.9378 410.485 70.5699 410.061L54.7064 391.812Z" stroke="#878A8B" stroke-width="2"/>
<path d="M345.068 397.791C345.803 396.951 346.175 395.854 346.101 394.739C346.027 393.625 345.513 392.586 344.673 391.851L344.508 391.706C344.092 391.342 343.608 391.063 343.084 390.886C342.561 390.709 342.007 390.636 341.456 390.673C340.904 390.709 340.365 390.854 339.869 391.099C339.374 391.344 338.931 391.684 338.567 392.1L322.732 410.188C321.997 411.029 321.625 412.126 321.699 413.241C321.773 414.355 322.287 415.394 323.127 416.129L323.292 416.274C323.708 416.638 324.192 416.917 324.715 417.094C325.239 417.271 325.793 417.344 326.344 417.307C326.896 417.271 327.435 417.126 327.931 416.881C328.426 416.636 328.869 416.296 329.233 415.88L345.068 397.791Z" stroke="#878A8B" stroke-width="2"/>
<path d="M12.9598 394.3C11.9598 397.38 9.55982 399.95 6.40982 400.9C5.12316 401.293 5.12316 401.687 6.40982 402.08C10.0232 403.193 12.2398 405.193 13.0598 408.08C13.6198 410.04 14.2598 410.067 14.9798 408.16C16.2398 404.813 18.2698 402.633 21.0698 401.62C22.7765 401 22.7465 400.49 20.9798 400.09C17.8865 399.39 15.8598 397.467 14.8998 394.32C14.2731 392.253 13.6265 392.247 12.9598 394.3Z" stroke="#F5908E" stroke-width="2"/>
<path d="M273.69 444.41C272.19 445.197 270.717 445.947 269.27 446.66C268.123 447.227 267.297 447.957 266.79 448.85C266.103 450.043 266.08 451.377 266.72 452.85C267.213 453.983 268.07 454.683 269.29 454.95C270.95 455.317 272.577 455.083 274.17 454.25C285.783 448.15 297.287 440.893 308.68 432.48C310.987 430.78 311.383 428.683 309.87 426.19C309.843 426.143 309.813 426.103 309.78 426.07C307.847 423.963 305.823 423.707 303.71 425.3C293.837 432.733 283.83 439.103 273.69 444.41Z" stroke="#878A8B" stroke-width="2"/>
<path d="M324.82 472.76C324.82 471.678 324.39 470.64 323.625 469.875C322.86 469.11 321.822 468.68 320.74 468.68C319.658 468.68 318.62 469.11 317.855 469.875C317.09 470.64 316.66 471.678 316.66 472.76C316.66 473.296 316.765 473.826 316.971 474.321C317.176 474.816 317.476 475.266 317.855 475.645C318.234 476.024 318.684 476.324 319.179 476.529C319.674 476.734 320.204 476.84 320.74 476.84C321.276 476.84 321.806 476.734 322.301 476.529C322.796 476.324 323.246 476.024 323.625 475.645C324.004 475.266 324.304 474.816 324.509 474.321C324.714 473.826 324.82 473.296 324.82 472.76Z" stroke="#878A8B" stroke-width="2"/>
<path d="M96.6599 193.52C100.31 178.38 106.73 164.73 116.86 153.1C119.56 150 122.837 146.65 126.69 143.05C129 140.9 128.91 137.88 125.99 136.38C125.128 135.932 124.151 135.757 123.189 135.876C122.226 135.996 121.323 136.405 120.6 137.05C103.68 152.03 92.7932 170.523 87.9399 192.53C87.3532 195.197 88.4299 196.77 91.1699 197.25C94.1699 197.77 95.9199 196.58 96.6599 193.52Z" stroke="#F99494" stroke-width="2"/>
<path d="M265.61 143.32C281.98 157.26 291.38 173.77 296.01 194.31C296.67 197.2 298.47 197.97 301.38 197.44C304.1 196.94 305.17 195.323 304.59 192.59C300.083 171.35 289.163 152.997 271.83 137.53C270.116 136.003 268.23 135.743 266.17 136.75C265.796 136.937 265.483 137.17 265.23 137.45C263.343 139.537 263.47 141.493 265.61 143.32Z" stroke="#F99494" stroke-width="2"/>
<path d="M129.53 408.98C119.443 403.493 109.14 396.207 98.6199 387.12C96.3866 385.187 94.1266 385.133 91.8399 386.96C91.7666 387.02 91.7066 387.09 91.6599 387.17C90.2599 389.65 90.6199 391.817 92.7399 393.67C102.24 401.997 113.187 409.843 125.58 417.21C126.66 417.857 127.783 418.327 128.95 418.62C130.477 419 131.777 418.617 132.85 417.47C135.23 414.937 135.09 412.71 132.43 410.79C131.563 410.163 130.597 409.56 129.53 408.98Z" stroke="#8B8E91" stroke-width="2"/>
<path d="M201.55 299.95L214.31 299.86C214.65 299.86 214.83 299.687 214.85 299.34C217.463 251.64 219.72 203.947 221.62 156.26C222.073 144.973 217.366 136.413 207.5 130.58" stroke="#6E6C69" stroke-width="2"/>
<path d="M207.5 130.58C203.233 128.467 198.777 127.663 194.13 128.17C189.863 128.643 185.837 130.273 182.05 133.06C174.71 138.46 171.233 146.21 171.62 156.31C173.18 197.27 175.02 239.413 177.14 282.74C177.427 288.58 177.66 294.15 177.84 299.45C177.845 299.608 177.913 299.759 178.028 299.869C178.144 299.979 178.299 300.04 178.46 300.04L201.55 299.95" stroke="#878A8B" stroke-width="2"/>
<path d="M207.5 130.58L201.55 299.95" stroke="#D9D3CA" stroke-width="2"/>
<path d="M198.65 2.59C197.497 2.85667 196.993 3.79668 197.14 5.41001C197.3 7.27668 197.38 8.22668 197.38 8.26002C197.347 40.92 197.333 73.5833 197.34 106.25C197.34 107.677 197.287 109.15 197.18 110.67C197.16 110.99 196.993 111.193 196.68 111.28L191.33 112.76C177.32 115.18 165.73 124.34 159.97 137.23C156.74 144.44 156.19 153.21 156.34 161.24C156.607 175.413 157.003 188.823 157.53 201.47C158 212.81 158.03 224.2 158.66 235.64C159.42 249.37 158.79 260.45 153.73 273.16C145.38 294.17 130.98 311.44 114.56 326.81C112.787 328.47 108.36 332.377 101.28 338.53C101.007 338.763 100.873 339.17 100.88 339.75C100.707 339.517 100.53 339.47 100.35 339.61C94.7433 344.063 89.0666 348.53 83.3199 353.01C83.244 353.068 83.1533 353.104 83.0582 353.113C82.9631 353.122 82.8673 353.104 82.7818 353.061C82.6963 353.018 82.6246 352.953 82.5747 352.871C82.5249 352.789 82.499 352.696 82.4999 352.6C82.4932 322.2 82.4966 291.75 82.5099 261.25C82.5099 257.43 83.0132 253.867 84.0199 250.56C85.9132 248.767 87.2299 246.58 87.9699 244C88.3966 242.507 88.8399 241.34 89.2999 240.5C89.9266 239.36 90.5199 238.243 91.0799 237.15C92.0466 235.257 93.0733 233.673 94.1599 232.4C95.3466 231 96.4799 229.497 97.5599 227.89C97.6132 227.81 97.6399 227.72 97.6399 227.62C97.6399 227.533 97.6366 227.447 97.6299 227.36C97.6233 227.033 97.7266 226.743 97.9399 226.49C98.8332 225.437 99.7866 224.52 100.8 223.74C101.447 223.24 101.95 222.627 102.31 221.9C102.457 221.607 102.657 221.357 102.91 221.15C105.237 219.29 107.393 217.213 109.38 214.92C109.613 214.653 109.787 214.353 109.9 214.02C110.053 213.56 110.367 213.253 110.84 213.1C110.93 213.071 111.01 213.017 111.071 212.944C111.131 212.871 111.169 212.782 111.179 212.688C111.19 212.593 111.173 212.498 111.13 212.413C111.088 212.329 111.022 212.258 110.94 212.21C110.753 212.103 110.543 212.083 110.31 212.15C113.637 209.383 117.007 206.62 120.42 203.86C134.42 192.54 141.45 178.03 142.6 160.45C143.347 149.137 144.78 138.307 146.9 127.96C154 93.3267 165.653 59.78 181.86 27.32L196.51 0.609993C196.683 0.289993 196.923 0.226687 197.23 0.420021C197.823 0.786687 198.297 1.51 198.65 2.59Z" fill="#F82E30"/>
<path d="M198.65 2.58997L213.13 29.48C223.137 50.4133 231.23 71.1233 237.41 91.61C241.877 106.41 245.56 122.537 248.46 139.99C249.02 143.363 249.683 150.167 250.45 160.4C250.917 166.607 251.797 171.78 253.09 175.92C255.93 185.013 260.44 192.693 266.62 198.96C271.78 204.19 278.15 208.67 283.89 213.59C297.47 225.25 308.14 240.7 309.4 258.86C309.54 260.953 309.617 265.12 309.63 271.36C308.363 271.48 307.857 270.03 308.11 267.01C308.39 263.63 308.44 258.79 306.39 256.27C301.583 250.33 296.24 244.07 290.36 237.49C277.19 222.73 264.48 207.62 251.34 192.85C247.44 188.46 243.04 182.82 240.58 178.03C238.907 174.763 238.073 171.17 238.08 167.25C238.087 165.89 237.633 165.543 236.72 166.21C236.693 162.557 236.673 158.903 236.66 155.25C236.56 133.8 223.62 116.15 201.97 112.57C199.91 112.23 196.363 112.293 191.33 112.76L196.68 111.28C196.993 111.193 197.16 110.99 197.18 110.67C197.287 109.15 197.34 107.677 197.34 106.25C197.333 73.5833 197.347 40.92 197.38 8.25998C197.38 8.22665 197.3 7.27664 197.14 5.40997C196.993 3.79664 197.497 2.85663 198.65 2.58997Z" fill="#9F2731"/>
<path d="M272.9 47.09C272.547 46.97 272.233 46.7867 271.96 46.54C271.889 46.4761 271.837 46.3937 271.81 46.3018C271.783 46.2098 271.783 46.1119 271.809 46.0189C271.834 45.9259 271.886 45.8413 271.956 45.7744C272.027 45.7076 272.115 45.6611 272.21 45.64C275.743 44.8934 278.04 42.52 279.1 38.52C279.153 38.3134 279.29 38.2067 279.51 38.2C279.817 38.1934 280.007 38.3434 280.08 38.65C280.96 42.3834 282.983 44.55 286.15 45.15C287.637 45.4367 287.697 45.9067 286.33 46.56C283.603 47.86 281.72 49.9667 280.68 52.88C279.88 55.12 279.197 55.0867 278.63 52.78C277.97 50.0667 276.06 48.17 272.9 47.09Z" fill="#F82E30"/>
<path d="M97.1133 40.3461C96.5653 41.2474 96.7867 42.3828 97.6078 42.882C98.4289 43.3813 99.5388 43.0553 100.087 42.154C100.635 41.2527 100.413 40.1173 99.5923 39.618C98.7712 39.1188 97.6613 39.4447 97.1133 40.3461Z" fill="#F82E30"/>
<path d="M358.84 73.99C360.966 73.99 362.69 72.2663 362.69 70.14C362.69 68.0137 360.966 66.29 358.84 66.29C356.714 66.29 354.99 68.0137 354.99 70.14C354.99 72.2663 356.714 73.99 358.84 73.99Z" fill="#F82E30"/>
<path d="M327.545 107.622C333.218 107.285 337.55 102.529 337.222 96.9997C336.893 91.47 332.028 87.2606 326.355 87.5976C320.682 87.9347 316.35 92.6906 316.678 98.2202C317.007 103.75 321.872 107.959 327.545 107.622Z" fill="#F82E30"/>
<path d="M55.3201 102.32C58.2251 102.32 60.58 99.9651 60.58 97.0601C60.58 94.155 58.2251 91.8 55.3201 91.8C52.4151 91.8 50.0601 94.155 50.0601 97.0601C50.0601 99.9651 52.4151 102.32 55.3201 102.32Z" fill="#F82E30"/>
<path d="M236.72 166.21C236.607 167.123 236.54 168.053 236.52 169C236.08 187.74 235.603 205.7 235.09 222.88C234.777 233.24 234.717 242.783 234.91 251.51C235.003 255.91 235.727 260.63 237.08 265.67C240.013 276.61 244.467 286.573 250.44 295.56C261.17 311.73 275.4 325.93 291.29 338.96C291.403 339.06 291.537 339.117 291.69 339.13C291.803 339.143 291.853 339.207 291.84 339.32L291.82 339.63C291.46 339.723 291.247 339.827 291.18 339.94C289.96 342.133 288.65 344.2 287.25 346.14C279.603 356.74 270.233 366.327 259.14 374.9C258.8 375.16 258.633 375.077 258.64 374.65C258.88 362.477 258.873 351.24 258.62 340.94C258.507 336.227 256.843 331.66 253.63 327.24C250.91 323.507 247.927 319.383 244.68 314.87C244.48 314.59 244.24 314.553 243.96 314.76L226.1 327.74C225.845 327.925 225.633 328.163 225.478 328.438C225.323 328.712 225.228 329.016 225.2 329.33C222.573 357.617 220.22 385.843 218.14 414.01C218.133 414.117 218.084 414.218 218.005 414.292C217.925 414.366 217.82 414.408 217.71 414.41L207.53 414.47C207.303 414.27 207.2 414.03 207.22 413.75C209.773 379.93 212.183 345.107 214.45 309.28C214.497 308.533 214.143 308.163 213.39 308.17L201.09 308.31L179.03 308.3C178.483 308.3 178.23 308.57 178.27 309.11L184.98 413.85C185.007 414.177 184.853 414.343 184.52 414.35L175.78 414.53C175.087 414.543 174.713 414.203 174.66 413.51C172.527 385.43 170.253 357.813 167.84 330.66C167.727 329.333 167.133 328.257 166.06 327.43C160.58 323.237 154.9 318.923 149.02 314.49C148.727 314.263 148.48 314.31 148.28 314.63C145.667 318.81 142.827 322.943 139.76 327.03C135.66 332.5 134.8 338.48 134.84 346.25C134.9 355.917 134.927 365.587 134.92 375.26C134.92 376 134.627 376.147 134.04 375.7C120.513 365.48 109.46 353.497 100.88 339.75C100.873 339.17 101.007 338.763 101.28 338.53C108.36 332.377 112.787 328.47 114.56 326.81C130.98 311.44 145.38 294.17 153.73 273.16C158.79 260.45 159.42 249.37 158.66 235.64C158.03 224.2 158 212.81 157.53 201.47C157.003 188.823 156.607 175.413 156.34 161.24C156.19 153.21 156.74 144.44 159.97 137.23C165.73 124.34 177.32 115.18 191.33 112.76C196.363 112.293 199.91 112.23 201.97 112.57C223.62 116.15 236.56 133.8 236.66 155.25C236.673 158.903 236.693 162.557 236.72 166.21ZM201.55 299.95L214.31 299.86C214.65 299.86 214.83 299.687 214.85 299.34C217.463 251.64 219.72 203.947 221.62 156.26C222.073 144.973 217.367 136.413 207.5 130.58C203.233 128.467 198.777 127.663 194.13 128.17C189.863 128.643 185.837 130.273 182.05 133.06C174.71 138.46 171.233 146.21 171.62 156.31C173.18 197.27 175.02 239.413 177.14 282.74C177.427 288.58 177.66 294.15 177.84 299.45C177.845 299.608 177.913 299.758 178.029 299.869C178.144 299.979 178.299 300.04 178.46 300.04L201.55 299.95Z" fill="#1C222A"/>
<path d="M207.5 130.58L201.55 299.95L178.46 300.04C178.299 300.04 178.144 299.979 178.029 299.869C177.913 299.759 177.845 299.608 177.84 299.45C177.66 294.15 177.427 288.58 177.14 282.74C175.02 239.413 173.18 197.27 171.62 156.31C171.233 146.21 174.71 138.46 182.05 133.06C185.837 130.273 189.863 128.643 194.13 128.17C198.777 127.663 203.233 128.467 207.5 130.58Z" fill="#F2F1EC"/>
<path d="M207.5 130.58C217.367 136.413 222.073 144.973 221.62 156.26C219.72 203.947 217.463 251.64 214.85 299.34C214.83 299.687 214.65 299.86 214.31 299.86L201.55 299.95L207.5 130.58Z" fill="#BFB5A8"/>
<path d="M116.86 153.1C106.73 164.73 100.31 178.38 96.6601 193.52C95.9201 196.58 94.1701 197.77 91.1701 197.25C88.4301 196.77 87.3534 195.197 87.9401 192.53C92.7934 170.523 103.68 152.03 120.6 137.05C121.324 136.405 122.226 135.996 123.189 135.876C124.152 135.757 125.128 135.932 125.99 136.38C128.91 137.88 129 140.9 126.69 143.05C122.837 146.65 119.56 150 116.86 153.1Z" fill="#F82E30"/>
<path d="M296.01 194.31C291.38 173.77 281.98 157.26 265.61 143.32C263.47 141.493 263.343 139.537 265.23 137.45C265.483 137.17 265.797 136.937 266.17 136.75C268.23 135.743 270.117 136.003 271.83 137.53C289.163 152.997 300.083 171.35 304.59 192.59C305.17 195.323 304.1 196.94 301.38 197.44C298.47 197.97 296.67 197.2 296.01 194.31Z" fill="#F82E30"/>
<path d="M309.63 271.36L309.71 352.58C309.711 352.69 309.681 352.797 309.623 352.89C309.566 352.983 309.483 353.058 309.385 353.106C309.287 353.154 309.177 353.174 309.068 353.162C308.959 353.15 308.856 353.108 308.77 353.04L291.82 339.63L291.84 339.32C291.853 339.207 291.803 339.143 291.69 339.13C291.537 339.117 291.403 339.06 291.29 338.96C275.4 325.93 261.17 311.73 250.44 295.56C244.467 286.573 240.013 276.61 237.08 265.67C235.727 260.63 235.003 255.91 234.91 251.51C234.717 242.783 234.777 233.24 235.09 222.88C235.603 205.7 236.08 187.74 236.52 169C236.54 168.053 236.607 167.123 236.72 166.21C237.633 165.543 238.087 165.89 238.08 167.25C238.073 171.17 238.907 174.763 240.58 178.03C243.04 182.82 247.44 188.46 251.34 192.85C264.48 207.62 277.19 222.73 290.36 237.49C296.24 244.07 301.583 250.33 306.39 256.27C308.44 258.79 308.39 263.63 308.11 267.01C307.857 270.03 308.363 271.48 309.63 271.36Z" fill="#F82E30"/>
<path d="M9.63007 184.41C12.0159 184.41 13.9501 182.476 13.9501 180.09C13.9501 177.704 12.0159 175.77 9.63007 175.77C7.2442 175.77 5.31006 177.704 5.31006 180.09C5.31006 182.476 7.2442 184.41 9.63007 184.41Z" fill="#1C222A"/>
<path d="M110.31 212.15C110.543 212.083 110.753 212.103 110.94 212.21C111.022 212.258 111.088 212.329 111.13 212.413C111.173 212.498 111.19 212.593 111.179 212.688C111.169 212.782 111.131 212.871 111.071 212.944C111.011 213.017 110.93 213.071 110.84 213.1C110.367 213.253 110.053 213.56 109.9 214.02C109.787 214.353 109.613 214.653 109.38 214.92C107.393 217.213 105.237 219.29 102.91 221.15C102.657 221.357 102.457 221.607 102.31 221.9C101.95 222.627 101.447 223.24 100.8 223.74C99.7867 224.52 98.8334 225.437 97.94 226.49C97.7267 226.743 97.6234 227.033 97.63 227.36C97.6367 227.447 97.64 227.533 97.64 227.62C97.64 227.72 97.6134 227.81 97.56 227.89C96.48 229.497 95.3467 231 94.16 232.4C93.0734 233.673 92.0467 235.257 91.08 237.15C90.52 238.243 89.9267 239.36 89.3 240.5C88.84 241.34 88.3967 242.507 87.97 244C87.23 246.58 85.9134 248.767 84.02 250.56C85.42 244.3 87.8467 238.53 91.3 233.25C96.66 225.057 102.997 218.023 110.31 212.15Z" fill="#9F2731"/>
<path d="M15.7134 289.79C21.6696 288.316 25.3235 282.375 23.8747 276.521C22.4259 270.667 16.423 267.116 10.4668 268.59C4.51059 270.064 0.856616 276.005 2.30542 281.859C3.75422 287.713 9.75717 291.264 15.7134 289.79Z" fill="#1C222A"/>
<path d="M380.09 284.87C383.001 284.87 385.36 282.511 385.36 279.6C385.36 276.689 383.001 274.33 380.09 274.33C377.18 274.33 374.82 276.689 374.82 279.6C374.82 282.511 377.18 284.87 380.09 284.87Z" fill="#1C222A"/>
<path d="M207.53 414.47C206.983 414.543 206.807 414.89 207 415.51C204.233 426.903 201.213 437.817 197.94 448.25C197.393 449.99 197.127 449.947 197.14 448.12C197.2 435.82 197.16 423.26 197.54 410.96C198.6 376.773 199.783 342.557 201.09 308.31L213.39 308.17C214.143 308.163 214.497 308.533 214.45 309.28C212.183 345.107 209.773 379.93 207.22 413.75C207.2 414.03 207.303 414.27 207.53 414.47Z" fill="#BFB5A8"/>
<path d="M339.71 363.04L357.17 347.41C357.309 347.284 357.49 347.214 357.678 347.212C357.866 347.21 358.048 347.277 358.19 347.4L375.42 362.55C375.503 362.622 375.57 362.71 375.617 362.81C375.663 362.909 375.688 363.018 375.689 363.128C375.689 363.238 375.667 363.346 375.622 363.447C375.578 363.547 375.512 363.637 375.43 363.71L357.97 379.14C357.83 379.266 357.65 379.336 357.462 379.338C357.274 379.34 357.092 379.273 356.95 379.15L339.72 364.19C339.638 364.118 339.573 364.03 339.527 363.932C339.482 363.833 339.458 363.726 339.457 363.617C339.456 363.509 339.478 363.401 339.522 363.302C339.565 363.202 339.63 363.113 339.71 363.04Z" fill="#F82E30"/>
<path d="M40.15 371.56C42.569 371.56 44.53 369.599 44.53 367.18C44.53 364.761 42.569 362.8 40.15 362.8C37.731 362.8 35.77 364.761 35.77 367.18C35.77 369.599 37.731 371.56 40.15 371.56Z" fill="#1C222A"/>
<path d="M237.41 436.73L234.32 521.13C234.307 521.457 234.137 521.617 233.81 521.61H233.55C233.383 521.61 233.3 521.527 233.3 521.36L231.99 459.19C231.263 432.183 230.703 404.543 230.31 376.27C230.27 373.63 231.667 372.187 234.5 371.94C234.627 371.927 234.753 371.93 234.88 371.95C237.707 372.363 239.09 373.897 239.03 376.55C238.49 398.663 237.95 418.723 237.41 436.73Z" fill="#F82E30"/>
<path d="M160.13 463.52L158.45 521.38C158.443 521.613 158.323 521.717 158.09 521.69L157.84 521.66C157.773 521.653 157.737 521.613 157.73 521.54L155.73 463.94C154.757 434.833 153.897 405.797 153.15 376.83C153 371.09 161.16 370.44 161.55 375.86C161.92 380.93 161.71 386.14 161.64 391.31C161.32 415.397 160.817 439.467 160.13 463.52Z" fill="#F82E30"/>
<path d="M129.53 408.98C130.597 409.56 131.563 410.163 132.43 410.79C135.09 412.71 135.23 414.937 132.85 417.47C131.777 418.617 130.477 419 128.95 418.62C127.783 418.327 126.66 417.857 125.58 417.21C113.187 409.843 102.24 401.997 92.7399 393.67C90.6199 391.817 90.2599 389.65 91.6599 387.17C91.7066 387.09 91.7666 387.02 91.8399 386.96C94.1266 385.133 96.3866 385.187 98.6199 387.12C109.14 396.207 119.443 403.493 129.53 408.98Z" fill="#1C222A"/>
<path d="M302.23 390.33C301.89 391.583 301.08 392.74 299.8 393.8C291.767 400.433 283.85 406.277 276.05 411.33C272.29 413.963 268.29 416.213 264.05 418.08C259.09 420.26 256.44 412.72 261.47 409.97C273.123 403.59 283.82 396.05 293.56 387.35C297.13 384.17 301.85 385.04 302.23 390.33Z" fill="#1C222A"/>
<path d="M48.6825 391.391L48.4711 391.575C46.6913 393.122 46.5028 395.819 48.0499 397.599L63.9134 415.848C65.4606 417.628 68.1576 417.816 69.9374 416.269L70.1487 416.085C71.9285 414.538 72.1171 411.841 70.57 410.061L54.7064 391.812C53.1593 390.033 50.4623 389.844 48.6825 391.391Z" fill="#1C222A"/>
<path d="M344.673 391.851L344.508 391.706C342.758 390.174 340.099 390.351 338.567 392.1L322.732 410.188C321.201 411.938 321.377 414.598 323.127 416.129L323.292 416.274C325.042 417.806 327.701 417.629 329.233 415.88L345.068 397.791C346.599 396.042 346.423 393.382 344.673 391.851Z" fill="#1C222A"/>
<path d="M6.41007 400.9C9.56007 399.95 11.9601 397.38 12.9601 394.3C13.6267 392.247 14.2734 392.253 14.9001 394.32C15.8601 397.467 17.8867 399.39 20.9801 400.09C22.7467 400.49 22.7767 401 21.0701 401.62C18.2701 402.633 16.2401 404.813 14.9801 408.16C14.2601 410.067 13.6201 410.04 13.0601 408.08C12.2401 405.193 10.0234 403.193 6.41007 402.08C5.1234 401.687 5.1234 401.293 6.41007 400.9Z" fill="#F82E30"/>
<path d="M273.69 444.41C283.83 439.103 293.837 432.733 303.71 425.3C305.823 423.707 307.847 423.963 309.78 426.07C309.813 426.103 309.843 426.143 309.87 426.19C311.383 428.683 310.987 430.78 308.68 432.48C297.287 440.893 285.783 448.15 274.17 454.25C272.577 455.083 270.95 455.317 269.29 454.95C268.07 454.683 267.213 453.983 266.72 452.85C266.08 451.377 266.103 450.043 266.79 448.85C267.297 447.957 268.123 447.227 269.27 446.66C270.717 445.947 272.19 445.197 273.69 444.41Z" fill="#1C222A"/>
<path d="M87.75 424.33C99.1766 433.223 111.467 440.773 124.62 446.98C126.673 447.947 127.533 449.447 127.2 451.48C127.033 452.493 126.343 453.507 125.13 454.52C122.51 456.21 119.41 454.56 116.94 453.29C106.687 447.983 96.05 441.323 85.03 433.31C83.13 431.93 81.76 429.67 82.74 427.3C83.4466 425.607 85.1166 424.617 87.75 424.33Z" fill="#1C222A"/>
<path d="M320.74 476.84C322.993 476.84 324.82 475.013 324.82 472.76C324.82 470.507 322.993 468.68 320.74 468.68C318.487 468.68 316.66 470.507 316.66 472.76C316.66 475.013 318.487 476.84 320.74 476.84Z" fill="#1C222A"/>
<path d="M187.5 436.5L179 309.5H199.5L195.5 449.5L187.5 436.5Z" fill="#F2F1EC" stroke="#F2F1EC"/>
</g>
<defs>
<clipPath id="clip0_2106_897">
<rect width="385" height="522" fill="white"/>
</clipPath>
</defs>
</svg>
